<?xml version="1.0" encoding="utf-8"?>
<!-- Generator: Adobe Illustrator 16.0.0, SVG Export Plug-In . SVG Version: 6.00 Build 0)  -->
<!DOCTYPE svg PUBLIC "-//W3C//DTD SVG 1.1//EN" "http://www.w3.org/Graphics/SVG/1.1/DTD/svg11.dtd">
<svg version="1.1" id="Layer_1" xmlns="http://www.w3.org/2000/svg" xmlns:xlink="http://www.w3.org/1999/xlink" x="0px" y="0px"
	 width="861px" height="254px" viewBox="0 0 861 254" enable-background="new 0 0 861 254" xml:space="preserve">
<g>
	<g>
		<linearGradient id="SVGID_1_" gradientUnits="userSpaceOnUse" x1="1.9819" y1="88.4199" x2="35.6719" y2="88.4199">
			<stop  offset="0" style="stop-color:#93CD93"/>
			<stop  offset="1" style="stop-color:#A7D381"/>
		</linearGradient>
		<path fill="url(#SVGID_1_)" d="M1.982,116.888V47.531h33.69v81.777C35.672,129.309,19.939,124.471,1.982,116.888z"/>
		<path fill="#9ED088" d="M35.672,135.437L4.683,122.371c0,0,10.17,21.936,30.989,38.393V135.437z"/>
		<linearGradient id="SVGID_2_" gradientUnits="userSpaceOnUse" x1="39.1631" y1="57.2104" x2="111.7563" y2="121.809">
			<stop  offset="0.0035" style="stop-color:#95CE90"/>
			<stop  offset="1" style="stop-color:#B0D578"/>
		</linearGradient>
		<path fill="url(#SVGID_2_)" d="M45.207,47.531c0,0,82.636-2.096,88.993,31.451c6.356,33.551-42.271,65.811-88.993,52.581V47.531z"
			/>
		<linearGradient id="SVGID_3_" gradientUnits="userSpaceOnUse" x1="47.541" y1="7.1563" x2="187.5912" y2="132.1395">
			<stop  offset="0.0035" style="stop-color:#95CE90"/>
			<stop  offset="0.3619" style="stop-color:#A1D186"/>
			<stop  offset="1" style="stop-color:#C0DA6A"/>
		</linearGradient>
		<path fill="url(#SVGID_3_)" d="M45.207,137.7v28.069c0,0,58.481,33.551,129.675-36.461l-23.997-28.873
			c0,0,52.065-9.073,87.245-15.723v-63.63c0,0-2.86-11.293-14.62-15.003H22.164c0,0-6.038,2.096-15.097,8.224
			c0,0,63.417-1.068,84.439,0.929c17.809,1.673,43.25,7.742,58.268,42.137C167.801,98.702,113.541,153.176,45.207,137.7z"/>
		<path fill="#00ABE5" d="M1.982,161.896c0,0,7.946,9.803,33.69,25.732v59.555c0,0-10.583-1.023-14.088-1.51
			c-6.283-0.895-19.602-2.035-19.602-16.357C1.982,213.295,1.982,161.896,1.982,161.896z"/>
		<linearGradient id="SVGID_4_" gradientUnits="userSpaceOnUse" x1="55.8101" y1="274.2217" x2="243.9751" y2="141.9629">
			<stop  offset="0.0035" style="stop-color:#00ABE5"/>
			<stop  offset="0.1813" style="stop-color:#059FD9"/>
			<stop  offset="0.5019" style="stop-color:#1180BB"/>
			<stop  offset="0.9259" style="stop-color:#244D89"/>
			<stop  offset="1" style="stop-color:#284380"/>
		</linearGradient>
		<path fill="url(#SVGID_4_)" d="M45.207,191.902v55.281h174.489c0,0,17.163-4.955,18.435-21.414v-33.867
			c0,0-5.086-9.029-10.488-13.877c0,0-26.698,32.063-79.14,34.584c0,0,56.057-22.605,77.073-51.846l12.555,15.324v-74.521
			l-61.341,8.383l24.473,25.804C201.262,135.754,126.253,220.934,45.207,191.902z"/>
	</g>
	<g>
		<linearGradient id="SVGID_5_" gradientUnits="userSpaceOnUse" x1="320.417" y1="213.835" x2="328.899" y2="-13.3128">
			<stop  offset="0" style="stop-color:#5AC9FF"/>
			<stop  offset="1" style="stop-color:#150076"/>
		</linearGradient>
		<path fill="url(#SVGID_5_)" d="M378.027,44.84v35.105c0,17.446-15.793,31.758-35.359,31.758h-39.366v50.539h-27.578V1.232h53.594
			C356.235,1.232,378.027,20.685,378.027,44.84z M350.444,79.945V44.84c0-10.96-9.556-19.904-21.126-19.904h-26.017v62.841h39.366
			C346.889,87.776,350.444,84.196,350.444,79.945z"/>
		<linearGradient id="SVGID_6_" gradientUnits="userSpaceOnUse" x1="438.6099" y1="218.248" x2="447.092" y2="-8.9037">
			<stop  offset="0" style="stop-color:#5AC9FF"/>
			<stop  offset="1" style="stop-color:#150076"/>
		</linearGradient>
		<path fill="url(#SVGID_6_)" d="M401.118,162.242V1.232h85.18v22.809H428.69v38.686h52.929v23.927H428.69v52.774h57.607v22.813
			H401.118z"/>
		<linearGradient id="SVGID_7_" gradientUnits="userSpaceOnUse" x1="554.2866" y1="222.5684" x2="562.7687" y2="-4.5815">
			<stop  offset="0" style="stop-color:#5AC9FF"/>
			<stop  offset="1" style="stop-color:#150076"/>
		</linearGradient>
		<path fill="url(#SVGID_7_)" d="M582.331,81.738V44.169c0-11.63-10.448-21.021-23.569-21.021c-12.901,0-23.578,9.391-23.578,21.021
			v86.321c0,4.469,3.556,7.827,8.006,7.827h66.714v23.925h-66.714c-19.785,0-35.578-14.311-35.578-31.752V44.169
			c0-24.826,22.904-44.729,51.15-44.729c28.238,0,51.142,19.904,51.142,44.729v37.569H582.331z"/>
		<linearGradient id="SVGID_8_" gradientUnits="userSpaceOnUse" x1="684.0513" y1="227.417" x2="692.5336" y2="0.2611">
			<stop  offset="0" style="stop-color:#5AC9FF"/>
			<stop  offset="1" style="stop-color:#150076"/>
		</linearGradient>
		<path fill="url(#SVGID_8_)" d="M638.339,1.232h27.572v61.495h47.147V1.232h27.582v161.01h-27.582V86.654h-47.147v75.588h-27.572
			V1.232z"/>
		<linearGradient id="SVGID_9_" gradientUnits="userSpaceOnUse" x1="800.0347" y1="231.7432" x2="808.5168" y2="4.5921">
			<stop  offset="0" style="stop-color:#5AC9FF"/>
			<stop  offset="1" style="stop-color:#150076"/>
		</linearGradient>
		<path fill="url(#SVGID_9_)" d="M757.049,1.232h102.302v23.703h-37.365v137.307h-27.571V24.936h-37.365V1.232z"/>
	</g>
	<g>
		<linearGradient id="SVGID_10_" gradientUnits="userSpaceOnUse" x1="295.2114" y1="250.8525" x2="297.7119" y2="183.8894">
			<stop  offset="0" style="stop-color:#5AC9FF"/>
			<stop  offset="1" style="stop-color:#150076"/>
		</linearGradient>
		<path fill="url(#SVGID_10_)" d="M308.395,217.635V202.16c0-5.949-5.492-10.895-12.27-10.895c-6.775,0-12.267,4.945-12.267,10.895
			v36.174c0,2.652,2.194,4.848,4.852,4.848h28.113v7.418H288.71c-7.325,0-13.275-5.492-13.275-12.266V202.16
			c0-10.07,9.246-18.313,20.69-18.313c11.446,0,20.698,8.242,20.698,18.313v15.475H308.395z"/>
		<linearGradient id="SVGID_11_" gradientUnits="userSpaceOnUse" x1="375.4624" y1="251.3057" x2="377.9766" y2="183.9756">
			<stop  offset="0" style="stop-color:#5AC9FF"/>
			<stop  offset="1" style="stop-color:#150076"/>
		</linearGradient>
		<path fill="url(#SVGID_11_)" d="M397.414,202.262v30.76c0,10.07-9.246,18.314-20.688,18.314c-11.452,0-20.7-8.244-20.7-18.314
			v-30.76c0-10.082,9.248-18.316,20.7-18.316C388.167,183.945,397.414,192.18,397.414,202.262z M388.991,202.262
			c0-6.051-5.492-10.906-12.266-10.906c-6.775,0-12.276,4.855-12.276,10.906v30.76c0,6.037,5.501,10.895,12.276,10.895
			c6.773,0,12.266-4.857,12.266-10.895V202.262z"/>
		<linearGradient id="SVGID_12_" gradientUnits="userSpaceOnUse" x1="457.8794" y1="251.3252" x2="460.3951" y2="183.9556">
			<stop  offset="0" style="stop-color:#5AC9FF"/>
			<stop  offset="1" style="stop-color:#150076"/>
		</linearGradient>
		<path fill="url(#SVGID_12_)" d="M479.831,184.682V250.6h-8.421l-24.544-46.969V250.6h-8.423v-65.918h8.423l24.544,46.879v-46.879
			H479.831z"/>
		<linearGradient id="SVGID_13_" gradientUnits="userSpaceOnUse" x1="532.8228" y1="250.6709" x2="535.3155" y2="183.9157">
			<stop  offset="0" style="stop-color:#5AC9FF"/>
			<stop  offset="1" style="stop-color:#150076"/>
		</linearGradient>
		<path fill="url(#SVGID_13_)" d="M514.455,184.682h41.389v7.408h-16.479v58.51h-8.433v-58.51h-16.477V184.682z"/>
		<linearGradient id="SVGID_14_" gradientUnits="userSpaceOnUse" x1="611.6821" y1="251.6582" x2="614.8651" y2="166.4178">
			<stop  offset="0" style="stop-color:#5AC9FF"/>
			<stop  offset="1" style="stop-color:#150076"/>
		</linearGradient>
		<path fill="url(#SVGID_14_)" d="M626.549,239.248h-30.58l-4.123,11.352h-8.511l23.986-65.918h8.699l24.086,65.918h-9.436
			L626.549,239.248z M623.898,232.018l-12.634-34.703l-12.634,34.703H623.898z M613.458,166.365l5.404,3.934l-7.599,11.084
			l-5.403-3.943L613.458,166.365z"/>
		<linearGradient id="SVGID_15_" gradientUnits="userSpaceOnUse" x1="693.9331" y1="251.3174" x2="696.4217" y2="184.6729">
			<stop  offset="0" style="stop-color:#5AC9FF"/>
			<stop  offset="1" style="stop-color:#150076"/>
		</linearGradient>
		<path fill="url(#SVGID_15_)" d="M716.109,223.953v14.381c0,6.773-5.95,12.266-13.279,12.266h-28.107v-65.918h21.612
			c9.058,0,16.298,6.771,16.298,15.195v3.197c0,3.754-2.016,6.963-4.678,9.348C712.721,214.438,716.109,218.826,716.109,223.953z
			 M683.143,210.861h13.191c4.389,0,7.866-3.475,7.866-7.787v-3.197c0-4.301-3.478-7.787-7.866-7.787h-13.191V210.861z
			 M707.685,223.953c0-3.109-2.563-5.672-5.681-5.672h-18.861v24.9h19.687c2.661,0,4.855-2.195,4.855-4.848V223.953z"/>
		<linearGradient id="SVGID_16_" gradientUnits="userSpaceOnUse" x1="758.2866" y1="250.7109" x2="760.7564" y2="184.5705">
			<stop  offset="0" style="stop-color:#5AC9FF"/>
			<stop  offset="1" style="stop-color:#150076"/>
		</linearGradient>
		<path fill="url(#SVGID_16_)" d="M755.31,250.6v-65.918h8.423V250.6H755.31z"/>
		<linearGradient id="SVGID_17_" gradientUnits="userSpaceOnUse" x1="821.1118" y1="251.1963" x2="823.5816" y2="185.0559">
			<stop  offset="0" style="stop-color:#5AC9FF"/>
			<stop  offset="1" style="stop-color:#150076"/>
		</linearGradient>
		<path fill="url(#SVGID_17_)" d="M805.151,184.682h8.423v58.688h26.002v7.23h-34.425V184.682z"/>
	</g>
</g>
</svg>
